<svg width="213" height="57" viewBox="0 0 213 57" fill="none" xmlns="http://www.w3.org/2000/svg">
<path d="M63.7004 29.9002V29.7002C61.8004 28.3002 59.5004 27.0002 56.8004 25.7002C54.6004 24.6002 52.7004 23.7002 51.3004 22.9002C49.8004 22.1002 48.7004 21.3002 48.0004 20.5002C47.3004 19.6002 46.9004 18.6002 46.9004 17.3002C46.9004 16.0002 47.1004 15.3002 47.6004 14.5002C48.1004 13.7002 48.9004 13.1002 49.9004 12.7002C50.9004 12.3002 52.1004 12.0002 53.4004 12.0002C55.4004 12.0002 57.4004 12.3002 59.3004 12.8002C61.2004 13.3002 63.4004 14.1002 65.8004 15.1002L69.4004 6.4002C66.7004 5.2002 64.1004 4.3002 61.6004 3.7002C59.1004 3.1002 56.5004 2.7002 53.8004 2.7002C51.1004 2.7002 47.0004 3.3002 44.3004 4.5002C41.6004 5.7002 39.6004 7.4002 38.1004 9.7002C36.7004 11.9002 36.0004 14.6002 36.0004 17.7002C36.0004 20.8002 36.4004 22.2002 37.3004 23.9002C38.1004 25.6002 39.2004 27.1002 40.5004 28.3002C41.8004 29.5002 43.2004 30.5002 44.6004 31.3002C46.0004 32.1002 47.4004 32.8002 48.6004 33.4002C50.6004 34.3002 52.3004 35.2002 53.8004 36.1002C55.3004 36.9002 56.5004 37.7002 57.4004 38.7002C58.3004 39.6002 58.8004 40.8002 58.8004 42.1002C58.8004 43.4002 58.5004 44.1002 58.0004 45.0002C57.5004 45.8002 56.7004 46.5002 55.6004 47.0002C54.5004 47.5002 53.1004 47.7002 51.2004 47.7002C48.5004 47.7002 45.9004 47.3002 43.2004 46.4002C40.5004 45.5002 38.0004 44.5002 35.4004 43.4002V53.8002C36.8004 54.5002 38.3004 55.1002 39.9004 55.6002C41.5004 56.0002 43.2004 56.4002 44.9004 56.6002C46.7004 56.8002 48.5004 57.0002 50.3004 57.0002C54.4004 57.0002 57.9004 56.4002 60.8004 55.2002C63.7004 53.9002 65.9004 52.1002 67.4004 49.8002C68.9004 47.5002 69.7004 44.8002 69.7004 41.7002C69.7004 38.6002 69.2004 36.6002 68.1004 34.8002C67.1004 32.9002 65.6004 31.3002 63.7004 29.9002Z" fill="#26A9BB"/>
<path d="M108.701 16.6C106.501 15.6 104.001 15 101.101 15C98.2008 15 97.9008 15.2 96.4008 15.7C95.0008 16.1 93.7008 16.7 92.5008 17.6C91.3008 18.4 90.3008 19.5 89.4008 20.9H88.8008C88.8008 20.2 89.0008 18.9 89.1008 17.1C89.2008 15.3 89.3008 13.4 89.3008 11.4V0H78.3008V56.1H89.3008V37.1C89.3008 34.2 89.6008 31.8 90.1008 29.9C90.6008 27.9 91.5008 26.4 92.8008 25.4C94.1008 24.4 95.8008 23.8 98.0008 23.8C100.201 23.8 101.801 24.5 102.901 26C104.001 27.4 104.501 29.6 104.501 32.5V56.1H115.501V29.8C115.501 26.4 114.901 23.5 113.701 21.4C112.501 19.2 110.801 17.6 108.701 16.6Z" fill="#26A9BB"/>
<path d="M19.2 4.1001C18.4 4.1001 17.5 4.3001 16.5 4.6001C15.6 4.9001 14.5 5.4001 13.4 6.0001C11.9 6.8001 10.2 7.7001 8.4 8.7001C6.6 9.7001 4.8 10.7001 2.9 11.7001C1 12.8001 0 14.3001 0 16.3001C0 18.3001 0.4 18.7001 1.3 19.5001C2.2 20.3001 3.3 20.8001 4.6 20.8001C5.9 20.8001 6.1 20.8001 6.7 20.4001C7.3 20.0001 8 19.8001 8.6 19.4001C9.6 18.8001 10.5 18.1001 11.3 17.6001C12.1 17.0001 13 16.4001 13.8 15.8001V51.2001C13.8 52.8001 14.2 54.2001 15.1 55.2001C16 56.2001 17.3 56.8001 18.9 56.8001C20.5 56.8001 21.9 56.3001 22.8 55.2001C23.7 54.2001 24.1 52.8001 24.1 51.2001V9.5001C24.1 7.6001 23.7 6.2001 22.8 5.4001C21.9 4.5001 20.7 4.1001 19.2 4.1001Z" fill="#26A9BB"/>
<path d="M154.1 17.5001C151.2 15.9001 147.8 15.1001 144.1 15.1001C140.4 15.1001 136.6 15.9001 133.6 17.5001C130.6 19.1001 128.4 21.5001 126.8 24.6001C125.2 27.7001 124.4 31.4001 124.4 35.9001C124.4 40.4001 124.9 42.2001 125.8 44.8001C126.8 47.4001 128.1 49.6001 129.9 51.4001C131.6 53.2001 133.7 54.5001 136 55.5001C138.4 56.4001 141 56.8001 143.8 56.8001C146.6 56.8001 149.6 56.4001 152 55.5001C154.4 54.6001 156.5 53.2001 158.1 51.4001C159.8 49.6001 161.1 47.4001 162 44.8001C162.9 42.2001 163.4 39.2001 163.4 35.9001C163.4 32.6001 162.6 27.7001 160.9 24.6001C159.2 21.5001 156.9 19.1001 154 17.5001H154.1ZM151.5 42.6001C151 44.4001 150.1 45.7001 148.8 46.7001C147.6 47.6001 146 48.0001 144.1 48.0001C142.2 48.0001 140.5 47.6001 139.3 46.7001C138.1 45.8001 137.2 44.4001 136.6 42.6001C136.1 40.8001 135.8 38.5001 135.8 35.9001C135.8 31.9001 136.4 28.9001 137.7 27.0001C139 25.0001 141.1 24.0001 144.1 24.0001C147.1 24.0001 147.7 24.4001 148.9 25.3001C150.1 26.2001 151 27.5001 151.6 29.3001C152.2 31.1001 152.5 33.3001 152.5 35.9001C152.5 38.5001 152.2 40.8001 151.6 42.6001H151.5Z" fill="#26A9BB"/>
<path d="M211.7 43.2998C206.4 40.5998 202.7 41.4998 198 44.6998C196.8 45.3998 195.6 46.2998 194.4 46.9998C192.407 48.2454 189.048 49.0237 186.8 47.8998C186.5 47.7498 186.3 47.5998 186 47.2998C185.1 46.4998 184.8 45.1998 184.8 43.5998V24.1998H196.1V15.8998H184.8V7.2998H177.8L174.6 15.7998L168.5 19.4998V24.1998H173.7V43.5998C173.7 46.9998 174.2 49.7998 175.3 51.6998C176.4 53.5998 177.9 54.9998 179.8 55.7998C181.7 56.5998 183.9 56.9998 186.3 56.9998C191.018 56.9998 195.753 55.0571 198.9 51.4998C200.5 49.6998 202.3 47.7998 204.1 46.3998C205.4 45.1998 208.2 45.0998 210.4 46.0998C212.2 46.8998 213.4 44.2998 211.7 43.3998V43.2998Z" fill="#26A9BB"/>
</svg>
